<svg xmlns="http://www.w3.org/2000/svg" viewBox="0 0 180 180" role="img" aria-label="WF Farm Helper">
  <rect width="180" height="180" rx="36" fill="#1c1917"/>
  <rect x="38" y="68" width="104" height="74" rx="10" fill="#f59e0b"/>
  <rect x="50" y="80" width="80" height="10" rx="4" fill="#78350f" opacity="0.5"/>
  <path d="M108 44a28 28 0 0 1 20 48l-8 8a16 16 0 0 0-12-6h-10a16 16 0 1 0 0 32h6v10h-6a28 28 0 1 1 0-56h10a28 28 0 0 1 10 2Z" fill="#fde68a"/>
  <circle cx="122" cy="58" r="14" fill="none" stroke="#fde68a" stroke-width="6"/>
</svg>
